<?xml version="1.0" encoding="UTF-8"?>
<svg xmlns="http://www.w3.org/2000/svg" viewBox="0 0 1050 570" width="1050" height="570">
  <defs>
    <marker id="arrowN" markerWidth="7" markerHeight="5" refX="7" refY="2.5" orient="auto">
      <polygon points="0 0, 7 2.5, 0 5" fill="#94a3b8"/>
    </marker>
    <marker id="arrowD" markerWidth="7" markerHeight="5" refX="7" refY="2.5" orient="auto">
      <polygon points="0 0, 7 2.5, 0 5" fill="#c084fc"/>
    </marker>
    <style>
      text { font-family: system-ui, -apple-system, 'Segoe UI', sans-serif; }
      .entity-name { font-size: 12px; font-weight: 700; fill: white; }
      .entity-field { font-size: 9.5px; fill: #475569; }
      .rel-label { font-size: 9px; fill: #94a3b8; }
    </style>
  </defs>

  <rect width="1050" height="570" fill="#f8fafc" rx="4"/>

  <!-- ═══════════════ TITLE ═══════════════ -->
  <text x="525" y="24" text-anchor="middle" font-size="15" font-weight="700" fill="#0f172a">WarmDesk — Core Data Model</text>

  <!-- ══════════════════════════════════════════════
       ENTITY BOX HELPER (x=left, y=top, w=175, h=68)
       Header h=24, divider, fields below
  ══════════════════════════════════════════════ -->

  <!-- ─── USERS (blue) ─── x=20, y=40 -->
  <rect x="20"  y="40"  width="175" height="68" rx="6" fill="#eff6ff" stroke="#3b82f6" stroke-width="1.8"/>
  <rect x="20"  y="40"  width="175" height="24" rx="6" fill="#2563eb"/>
  <rect x="20"  y="52"  width="175" height="12" fill="#2563eb"/>
  <text x="107" y="57"  text-anchor="middle" class="entity-name">users</text>
  <line x1="20" y1="64" x2="195" y2="64" stroke="#bfdbfe" stroke-width="0.5"/>
  <text x="30"  y="76"  class="entity-field">id · username · email</text>
  <text x="30"  y="89"  class="entity-field">password_hash · global_role · avatar</text>

  <!-- ─── API_KEYS (blue light) ─── x=20, y=165 -->
  <rect x="20"  y="165" width="175" height="68" rx="6" fill="#eff6ff" stroke="#93c5fd" stroke-width="1.5"/>
  <rect x="20"  y="165" width="175" height="24" rx="6" fill="#60a5fa"/>
  <rect x="20"  y="177" width="175" height="12" fill="#60a5fa"/>
  <text x="107" y="182" text-anchor="middle" class="entity-name">api_keys</text>
  <line x1="20" y1="189" x2="195" y2="189" stroke="#bfdbfe" stroke-width="0.5"/>
  <text x="30"  y="201" class="entity-field">id · user_id · project_id</text>
  <text x="30"  y="214" class="entity-field">name · key_hash · key_prefix</text>

  <!-- ─── CUSTOMERS (green) ─── x=220, y=40 -->
  <rect x="220" y="40"  width="175" height="68" rx="6" fill="#f0fdf4" stroke="#22c55e" stroke-width="1.8"/>
  <rect x="220" y="40"  width="175" height="24" rx="6" fill="#16a34a"/>
  <rect x="220" y="52"  width="175" height="12" fill="#16a34a"/>
  <text x="307" y="57"  text-anchor="middle" class="entity-name">customers</text>
  <line x1="220" y1="64" x2="395" y2="64" stroke="#bbf7d0" stroke-width="0.5"/>
  <text x="230" y="76"  class="entity-field">id · name · logo_url</text>
  <text x="230" y="89"  class="entity-field">description · position</text>

  <!-- ─── CONTRACTS (green light) ─── x=220, y=165 -->
  <rect x="220" y="165" width="175" height="68" rx="6" fill="#f0fdf4" stroke="#86efac" stroke-width="1.5"/>
  <rect x="220" y="165" width="175" height="24" rx="6" fill="#4ade80"/>
  <rect x="220" y="177" width="175" height="12" fill="#4ade80"/>
  <text x="307" y="182" text-anchor="middle" class="entity-name">contracts</text>
  <line x1="220" y1="189" x2="395" y2="189" stroke="#bbf7d0" stroke-width="0.5"/>
  <text x="230" y="201" class="entity-field">id · customer_id · name</text>
  <text x="230" y="214" class="entity-field">start_date · end_date</text>

  <!-- ─── TIME_ENTRIES (teal) ─── x=220, y=310 -->
  <rect x="220" y="310" width="175" height="68" rx="6" fill="#f0fdfa" stroke="#14b8a6" stroke-width="1.8"/>
  <rect x="220" y="310" width="175" height="24" rx="6" fill="#0d9488"/>
  <rect x="220" y="322" width="175" height="12" fill="#0d9488"/>
  <text x="307" y="327" text-anchor="middle" class="entity-name">time_entries</text>
  <line x1="220" y1="334" x2="395" y2="334" stroke="#99f6e4" stroke-width="0.5"/>
  <text x="230" y="346" class="entity-field">id · user_id · project_id</text>
  <text x="230" y="359" class="entity-field">customer_id · date · minutes</text>

  <!-- ─── PROJECTS (orange) ─── x=420, y=40 -->
  <rect x="420" y="40"  width="175" height="68" rx="6" fill="#fff7ed" stroke="#f97316" stroke-width="1.8"/>
  <rect x="420" y="40"  width="175" height="24" rx="6" fill="#ea580c"/>
  <rect x="420" y="52"  width="175" height="12" fill="#ea580c"/>
  <text x="507" y="57"  text-anchor="middle" class="entity-name">projects</text>
  <line x1="420" y1="64" x2="595" y2="64" stroke="#fed7aa" stroke-width="0.5"/>
  <text x="430" y="76"  class="entity-field">id · name · slug · color</text>
  <text x="430" y="89"  class="entity-field">customer_id · board_type · key_prefix</text>

  <!-- ─── COLUMNS (orange light) ─── x=420, y=165 -->
  <rect x="420" y="165" width="175" height="68" rx="6" fill="#fff7ed" stroke="#fdba74" stroke-width="1.5"/>
  <rect x="420" y="165" width="175" height="24" rx="6" fill="#fb923c"/>
  <rect x="420" y="177" width="175" height="12" fill="#fb923c"/>
  <text x="507" y="182" text-anchor="middle" class="entity-name">columns</text>
  <line x1="420" y1="189" x2="595" y2="189" stroke="#fed7aa" stroke-width="0.5"/>
  <text x="430" y="201" class="entity-field">id · project_id · name</text>
  <text x="430" y="214" class="entity-field">position · color · wip_limit</text>

  <!-- ─── CARDS (yellow) ─── x=420, y=310 -->
  <rect x="420" y="310" width="175" height="68" rx="6" fill="#fefce8" stroke="#eab308" stroke-width="1.8"/>
  <rect x="420" y="310" width="175" height="24" rx="6" fill="#ca8a04"/>
  <rect x="420" y="322" width="175" height="12" fill="#ca8a04"/>
  <text x="507" y="327" text-anchor="middle" class="entity-name">cards</text>
  <line x1="420" y1="334" x2="595" y2="334" stroke="#fef08a" stroke-width="0.5"/>
  <text x="430" y="346" class="entity-field">id · column_id · project_id · title</text>
  <text x="430" y="359" class="entity-field">priority · due_date · story_points</text>

  <!-- ─── CARD_CHECKLIST_ITEMS (yellow light) ─── x=420, y=445 -->
  <rect x="420" y="445" width="175" height="68" rx="6" fill="#fefce8" stroke="#fde047" stroke-width="1.5"/>
  <rect x="420" y="445" width="175" height="24" rx="6" fill="#eab308"/>
  <rect x="420" y="457" width="175" height="12" fill="#eab308"/>
  <text x="507" y="462" text-anchor="middle" class="entity-name">card_checklist_items</text>
  <line x1="420" y1="469" x2="595" y2="469" stroke="#fef08a" stroke-width="0.5"/>
  <text x="430" y="481" class="entity-field">id · card_id · body</text>
  <text x="430" y="494" class="entity-field">is_completed · position</text>

  <!-- ─── SPRINTS (orange) ─── x=620, y=165 -->
  <rect x="620" y="165" width="175" height="68" rx="6" fill="#fff7ed" stroke="#f97316" stroke-width="1.8"/>
  <rect x="620" y="165" width="175" height="24" rx="6" fill="#ea580c"/>
  <rect x="620" y="177" width="175" height="12" fill="#ea580c"/>
  <text x="707" y="182" text-anchor="middle" class="entity-name">sprints</text>
  <line x1="620" y1="189" x2="795" y2="189" stroke="#fed7aa" stroke-width="0.5"/>
  <text x="630" y="201" class="entity-field">id · project_id · name · status</text>
  <text x="630" y="214" class="entity-field">start_date · end_date · goal</text>

  <!-- ─── LABELS (yellow, M:N with cards) ─── x=620, y=310 -->
  <rect x="620" y="310" width="175" height="68" rx="6" fill="#fefce8" stroke="#eab308" stroke-width="1.5"/>
  <rect x="620" y="310" width="175" height="24" rx="6" fill="#ca8a04"/>
  <rect x="620" y="322" width="175" height="12" fill="#ca8a04"/>
  <text x="707" y="327" text-anchor="middle" class="entity-name">labels</text>
  <line x1="620" y1="334" x2="795" y2="334" stroke="#fef08a" stroke-width="0.5"/>
  <text x="630" y="346" class="entity-field">id · project_id · name · color</text>
  <text x="630" y="359" class="entity-field">↔ cards  (via card_labels)</text>

  <!-- ─── CARD_COMMENTS (yellow) ─── x=620, y=445 -->
  <rect x="620" y="445" width="175" height="68" rx="6" fill="#fefce8" stroke="#fde047" stroke-width="1.5"/>
  <rect x="620" y="445" width="175" height="24" rx="6" fill="#eab308"/>
  <rect x="620" y="457" width="175" height="12" fill="#eab308"/>
  <text x="707" y="462" text-anchor="middle" class="entity-name">card_comments</text>
  <line x1="620" y1="469" x2="795" y2="469" stroke="#fef08a" stroke-width="0.5"/>
  <text x="630" y="481" class="entity-field">id · card_id · user_id · body</text>
  <text x="630" y="494" class="entity-field">time_spent_minutes · is_edited</text>

  <!-- ─── TOPICS (teal) ─── x=820, y=165 -->
  <rect x="820" y="165" width="210" height="68" rx="6" fill="#f0fdfa" stroke="#14b8a6" stroke-width="1.8"/>
  <rect x="820" y="165" width="210" height="24" rx="6" fill="#0d9488"/>
  <rect x="820" y="177" width="210" height="12" fill="#0d9488"/>
  <text x="925" y="182" text-anchor="middle" class="entity-name">topics</text>
  <line x1="820" y1="189" x2="1030" y2="189" stroke="#99f6e4" stroke-width="0.5"/>
  <text x="830" y="201" class="entity-field">id · project_id · user_id · title</text>
  <text x="830" y="214" class="entity-field">body · is_pinned · reply_count</text>

  <!-- ─── TOPIC_REPLIES (teal light) ─── x=820, y=310 -->
  <rect x="820" y="310" width="210" height="68" rx="6" fill="#f0fdfa" stroke="#5eead4" stroke-width="1.5"/>
  <rect x="820" y="310" width="210" height="24" rx="6" fill="#2dd4bf"/>
  <rect x="820" y="322" width="210" height="12" fill="#2dd4bf"/>
  <text x="925" y="327" text-anchor="middle" class="entity-name">topic_replies</text>
  <line x1="820" y1="334" x2="1030" y2="334" stroke="#99f6e4" stroke-width="0.5"/>
  <text x="830" y="346" class="entity-field">id · topic_id · user_id</text>
  <text x="830" y="359" class="entity-field">body · is_edited</text>

  <!-- ─── CONVERSATIONS (purple) ─── x=20, y=310 -->
  <rect x="20"  y="310" width="175" height="68" rx="6" fill="#fdf4ff" stroke="#a855f7" stroke-width="1.8"/>
  <rect x="20"  y="310" width="175" height="24" rx="6" fill="#9333ea"/>
  <rect x="20"  y="322" width="175" height="12" fill="#9333ea"/>
  <text x="107" y="327" text-anchor="middle" class="entity-name">conversations</text>
  <line x1="20"  y1="334" x2="195" y2="334" stroke="#e9d5ff" stroke-width="0.5"/>
  <text x="30"  y="346" class="entity-field">id · name · is_group · avatar</text>
  <text x="30"  y="359" class="entity-field">created_by_id</text>

  <!-- ─── CONV_MESSAGES (purple light) ─── x=20, y=445 -->
  <rect x="20"  y="445" width="175" height="68" rx="6" fill="#fdf4ff" stroke="#d8b4fe" stroke-width="1.5"/>
  <rect x="20"  y="445" width="175" height="24" rx="6" fill="#c084fc"/>
  <rect x="20"  y="457" width="175" height="12" fill="#c084fc"/>
  <text x="107" y="462" text-anchor="middle" class="entity-name">conv_messages</text>
  <line x1="20"  y1="469" x2="195" y2="469" stroke="#e9d5ff" stroke-width="0.5"/>
  <text x="30"  y="481" class="entity-field">id · conv_id · sender_id</text>
  <text x="30"  y="494" class="entity-field">body · is_edited · is_deleted</text>


  <!-- ══════════════════════════════════════════════
       RELATIONSHIPS
       Solid line = 1:N   Dashed = M:N
  ══════════════════════════════════════════════ -->

  <!-- 1. users → api_keys (1:N, down) -->
  <line x1="107" y1="108" x2="107" y2="165" stroke="#94a3b8" stroke-width="1.3" marker-end="url(#arrowN)"/>
  <text x="112" y="140" class="rel-label">1:N</text>

  <!-- 2. users → projects (M:N via project_members, horizontal) -->
  <line x1="195" y1="55" x2="420" y2="55" stroke="#c084fc" stroke-width="1.3" stroke-dasharray="5,3" marker-end="url(#arrowD)"/>
  <text x="285" y="50" class="rel-label">M:N (project_members)</text>

  <!-- 3. users → conversations (1:N, long down) -->
  <line x1="60" y1="108" x2="60" y2="310" stroke="#94a3b8" stroke-width="1.3" marker-end="url(#arrowN)"/>
  <text x="65" y="215" class="rel-label">M:N</text>

  <!-- 4. customers → projects (N:1, horizontal) -->
  <line x1="395" y1="74" x2="420" y2="74" stroke="#94a3b8" stroke-width="1.3" marker-end="url(#arrowN)"/>
  <text x="393" y="70" text-anchor="end" class="rel-label">N:1</text>

  <!-- 5. customers → contracts (1:N, down) -->
  <line x1="307" y1="108" x2="307" y2="165" stroke="#94a3b8" stroke-width="1.3" marker-end="url(#arrowN)"/>
  <text x="312" y="140" class="rel-label">1:N</text>

  <!-- 6. customers → time_entries (1:N, down long) -->
  <line x1="270" y1="108" x2="270" y2="310" stroke="#94a3b8" stroke-width="1.3" marker-end="url(#arrowN)"/>
  <text x="238" y="215" class="rel-label">1:N</text>

  <!-- 7. projects → columns (1:N, down) -->
  <line x1="507" y1="108" x2="507" y2="165" stroke="#94a3b8" stroke-width="1.3" marker-end="url(#arrowN)"/>
  <text x="512" y="140" class="rel-label">1:N</text>

  <!-- 8. projects → sprints (1:N, elbow right-down) -->
  <polyline points="595,65 640,65 640,165" fill="none" stroke="#94a3b8" stroke-width="1.3" marker-end="url(#arrowN)"/>
  <text x="617" y="105" class="rel-label">1:N</text>

  <!-- 9. projects → topics (1:N, elbow right-down) -->
  <polyline points="595,78 795,78 795,165 820,165" fill="none" stroke="#94a3b8" stroke-width="1.3" marker-end="url(#arrowN)"/>
  <text x="700" y="73" class="rel-label">1:N</text>

  <!-- 10. projects → time_entries (1:N, down diagonal) -->
  <line x1="475" y1="108" x2="395" y2="310" stroke="#94a3b8" stroke-width="1.3" marker-end="url(#arrowN)"/>
  <text x="420" y="200" class="rel-label">1:N</text>

  <!-- 11. columns → cards (1:N, down) -->
  <line x1="507" y1="233" x2="507" y2="310" stroke="#94a3b8" stroke-width="1.3" marker-end="url(#arrowN)"/>
  <text x="512" y="275" class="rel-label">1:N</text>

  <!-- 12. sprints → cards (M:N via sprint_cards, diagonal) -->
  <line x1="680" y1="233" x2="590" y2="310" stroke="#c084fc" stroke-width="1.3" stroke-dasharray="5,3" marker-end="url(#arrowD)"/>
  <text x="622" y="263" class="rel-label">M:N</text>

  <!-- 13. cards → labels (M:N via card_labels, horizontal) -->
  <line x1="595" y1="344" x2="620" y2="344" stroke="#c084fc" stroke-width="1.3" stroke-dasharray="5,3" marker-end="url(#arrowD)"/>
  <text x="597" y="338" class="rel-label">M:N</text>

  <!-- 14. cards → card_comments (1:N, down-right) -->
  <line x1="575" y1="378" x2="655" y2="445" stroke="#94a3b8" stroke-width="1.3" marker-end="url(#arrowN)"/>
  <text x="588" y="415" class="rel-label">1:N</text>

  <!-- 15. cards → card_checklist_items (1:N, down) -->
  <line x1="465" y1="378" x2="465" y2="445" stroke="#94a3b8" stroke-width="1.3" marker-end="url(#arrowN)"/>
  <text x="470" y="415" class="rel-label">1:N</text>

  <!-- 16. topics → topic_replies (1:N, down) -->
  <line x1="925" y1="233" x2="925" y2="310" stroke="#94a3b8" stroke-width="1.3" marker-end="url(#arrowN)"/>
  <text x="930" y="275" class="rel-label">1:N</text>

  <!-- 17. conversations → conv_messages (1:N, down) -->
  <line x1="107" y1="378" x2="107" y2="445" stroke="#94a3b8" stroke-width="1.3" marker-end="url(#arrowN)"/>
  <text x="112" y="415" class="rel-label">1:N</text>

  <!-- ══════════════════════════════════════════════
       LEGEND
  ══════════════════════════════════════════════ -->
  <rect x="20"  y="532" width="14" height="10" rx="2" fill="#2563eb"/>
  <text x="38"  y="542" font-size="10" fill="#475569">Users / Auth</text>

  <rect x="130" y="532" width="14" height="10" rx="2" fill="#16a34a"/>
  <text x="148" y="542" font-size="10" fill="#475569">Customer / Contract</text>

  <rect x="290" y="532" width="14" height="10" rx="2" fill="#ea580c"/>
  <text x="308" y="542" font-size="10" fill="#475569">Project / Board</text>

  <rect x="430" y="532" width="14" height="10" rx="2" fill="#ca8a04"/>
  <text x="448" y="542" font-size="10" fill="#475569">Cards &amp; Details</text>

  <rect x="565" y="532" width="14" height="10" rx="2" fill="#0d9488"/>
  <text x="583" y="542" font-size="10" fill="#475569">Time / Topics</text>

  <rect x="680" y="532" width="14" height="10" rx="2" fill="#9333ea"/>
  <text x="698" y="542" font-size="10" fill="#475569">Messaging</text>

  <!-- legend lines -->
  <line x1="790" y1="537" x2="820" y2="537" stroke="#94a3b8" stroke-width="1.3"/>
  <text x="825" y="542" font-size="10" fill="#475569">1:N</text>

  <line x1="870" y1="537" x2="900" y2="537" stroke="#c084fc" stroke-width="1.3" stroke-dasharray="4,2"/>
  <text x="905" y="542" font-size="10" fill="#475569">M:N</text>
</svg>
